<svg xmlns="http://www.w3.org/2000/svg" id="uuid-68773c57-0e11-480c-95b8-c1903f97b051" data-name="Layer 1" viewBox="0 0 287.46 130"><path d="m67.49,57.81c-3.39,7.85-12.04,12.89-21.46,10.81-6.99-1.54-12.6-7.24-14.08-14.25-2.57-12.15,6.64-22.87,18.35-22.87,3.81,0,7.37,1.14,10.33,3.09L50.36.03s-.02-.03-.04-.03C28.65,0,8.88,13.64,2.47,34.33c-10.7,34.52,14.93,66.27,47.82,66.27,10.11,0,19.56-2.99,27.47-8.19" style="fill: #f4762c;"></path><polyline points="241.66 45.72 281.26 .22 239.86 .22 212.14 31.22 212.14 .22 182.96 98.08 212.14 98.08 212.14 64.9 212.32 64.9 243.27 98.08 285.48 98.08" style="fill: #f4762c;"></polyline><path d="m204.48.22l-29.01,97.86h-29.22l-14.86-48.24-15.07,48.24h-29.2l-3.11-10.48L58.19.6l-.13-.38h33.82l12.32,44.96L119.99.22h22.59l15.81,44.96L170.68.24s0-.02.02-.02" style="fill: #472362;"></path><g><path d="m97.09,119.61l2.4.66c-.68,2.83-3.18,4.62-6.06,4.62-3.56,0-6.56-2.78-6.56-6.92s3-6.92,6.56-6.92c2.8,0,5.28,1.8,6.06,4.6l-2.5.77c-.48-1.93-1.9-2.83-3.56-2.83-2.3,0-4.01,1.8-4.01,4.39s1.7,4.39,4.01,4.39c1.65,0,3.05-.85,3.66-2.75Z" style="fill: #472362;"></path><path d="m124.04,117.97c0,4.07-2.98,6.87-6.64,6.87s-6.69-2.8-6.69-6.87,3-6.84,6.69-6.84,6.64,2.78,6.64,6.84Zm-2.53,0c0-2.72-1.98-4.49-4.11-4.49s-4.13,1.77-4.13,4.49,1.95,4.49,4.13,4.49,4.11-1.77,4.11-4.49Z" style="fill: #472362;"></path></g><g><path d="m148.74,124.61h-1.2l-3.61-10.94-3.63,10.94h-1.2l-4.16-13.03h1.25l3.56,11.07,3.68-11.05h.98l3.68,11.07,3.56-11.1h1.25l-4.16,13.03Z" style="fill: #472362;"></path><path d="m176.91,118.05c0,3.91-2.8,6.77-6.44,6.77s-6.44-2.85-6.44-6.77,2.8-6.74,6.44-6.74,6.44,2.83,6.44,6.74Zm-1.2,0c0-3.28-2.3-5.6-5.23-5.6s-5.23,2.33-5.23,5.6,2.3,5.6,5.23,5.6,5.23-2.35,5.23-5.6Z" style="fill: #472362;"></path><path d="m197.25,111.58l-.13,1.22c-.25-.05-.5-.05-.73-.05-3.38,0-5.21,2.96-5.21,6.4v5.39h-1.23v-12.92h1.23v3.62c.98-2.14,2.78-3.73,5.21-3.73.28,0,.5,0,.85.08Z" style="fill: #472362;"></path><path d="m219.11,124.53l-7.64-6.05h-.83v6.05h-1.23v-19.03h1.23v11.73h.95l6.79-5.63h1.65l-7.51,6.29,8.39,6.63h-1.8Z" style="fill: #472362;"></path><path d="m234.72,107.67c0,.55-.4.98-.95.98s-.98-.42-.98-.98.4-1,.98-1,.95.45.95,1Zm-1.55,16.86v-12.92h1.2v12.92h-1.2Z" style="fill: #472362;"></path><path d="m260.01,116.84v7.69h-1.23v-7.51c0-2.72-1.55-4.52-3.86-4.52-2.93,0-4.88,2.09-4.88,5.55v6.47h-1.23v-12.92h1.23v2.75c.95-1.93,2.7-3.07,5.03-3.07,2.95,0,4.93,2.25,4.93,5.55Z" style="fill: #472362;"></path><path d="m285.05,123.6c-.03,3.65-2.4,5.95-5.96,5.95-3.15,0-5.13-1.37-6.03-3.62l1.08-.69c.83,1.96,2.3,3.12,4.96,3.12,2.83,0,4.73-1.93,4.76-4.89v-2.46c-1,1.74-2.78,2.77-5.01,2.77-3.28,0-6.08-2.51-6.08-6.26s2.8-6.21,6.08-6.21c2.23,0,4.01,1,5.01,2.75v-2.46h1.2v12Zm-1.2-6.08c0-3.12-2.3-5.07-4.86-5.07-2.75,0-5.06,1.96-5.06,5.07s2.3,5.13,5.06,5.13c2.55,0,4.86-1.98,4.86-5.13Z" style="fill: #472362;"></path></g></svg>